# xmcd
#
# Track frame offsets:
#  180
#  2340
#  19898
#  35873
#  62502
#  84404
#  100418
#  133838
#  146423
#  165699
#  189363
#  207539
#  232662
#  251446
#  273916
#  301562
#  323052
#
# Disc length: 4480 seconds
#
# Revision: 0
# Processed by: cddbd v1.5.1PL2 Copyright (c) Steve Scherf et al.
# Submitted via: Collectorz.com_Music_Collector 6.11
#
DISCID=d8117e11
DTITLE=Rolling Stones,The - Flashpoint ( Live )
DYEAR=1990
DGENRE=Rock
TTITLE0=Continental Drift
TTITLE1=Start me up
TTITLE2=Sad Sad Sad
TTITLE3=Miss you
TTITLE4=Rock and a Hard Place
TTITLE5=Ruby Tuesday
TTITLE6=You can't always get what you want
TTITLE7=Factory Girl
TTITLE8=Can't be seen
TTITLE9=Little Red Rooster
TTITLE10=Paint it Black
TTITLE11=Sympathy for the Devil
TTITLE12=Brown Sugar
TTITLE13=Jumping Jack Flash
TTITLE14=Satisfaction
TTITLE15=Highwire
TTITLE16=Sex Drive
EXTD=
EXTT0=
EXTT1=
EXTT2=
EXTT3=
EXTT4=
EXTT5=
EXTT6=
EXTT7=
EXTT8=
EXTT9=
EXTT10=
EXTT11=
EXTT12=
EXTT13=
EXTT14=
EXTT15=
EXTT16=
PLAYORDER=
